<svg xmlns="http://www.w3.org/2000/svg" width="36" height="24" fill="none" viewBox="0 0 36 24"><path fill="#0076ff" d="M17.5 0v6.7L10.8 0zM3.6 15.3H.5v-2h8.4v2h-3v8.1H3.5zM10.1 13.3h2.5l2.7 7.1 2.6-7.1h2.4l-4 10.2h-2zM23.5 15.5l-1.8.4-.5-1.8 3-.9h1.5v10.2h-2.2zM28.1 20.6q0-1.8 1.7-2.4a2 2 0 0 1-1.3-2.2c0-1.6 1.4-2.9 3.6-2.9 2 0 3.5 1.3 3.5 2.8q0 1.6-1.3 2.3 1.6.7 1.7 2.4c0 1.9-1.7 3-4 3s-3.9-1.2-3.9-3m5.7-.1q0-1.2-1.8-1.3-1.6 0-1.7 1.2t1.7 1.3q1.8 0 1.8-1.2m-.3-4.3q0-1.1-1.5-1.2-1.4 0-1.4 1.2.1 1.1 1.4 1.2 1.5 0 1.5-1.2"/><path fill="#001e5a" d="M27.2 6.6c0-2.7 2-5 5-5q2.6.2 3.7 1.5l-1.3 1.6q-1-1-2.4-1.1c-1.6 0-2.8 1.3-2.8 3s1.1 3 2.8 3q1.4-.1 2.5-1.1L36 9.8c-1 1-2 1.7-3.9 1.7a5 5 0 0 1-4.9-4.9M0 6.6c0-2.7 2-5 5-5q2.5.2 3.7 1.5L7.4 4.7q-1.1-1-2.5-1.1c-1.6 0-2.7 1.3-2.7 3s1.1 3 2.7 3q1.6-.1 2.5-1.1l1.4 1.3q-1.3 1.6-4 1.7A5 5 0 0 1 0 6.6M11.4 2.4l-.6-.6H9.3v9.5h2.1v-6l6 6h1.4V10zM25.1 6.4q1.2-.5 1.3-2v-.1q0-1-.7-1.6-.8-.9-2.5-.9h-4.4v8l1.5 1.5h3q3.5 0 3.6-2.6 0-1.9-1.8-2.3M21 3.7h2q1.5 0 1.4 1 0 1-1.5 1h-2zm4 4.8q0 1-1.5 1h-2.5v-2h2.4q1.5 0 1.5 1"/></svg>